<svg width="81" height="80" viewBox="0 0 81 80" fill="none" xmlns="http://www.w3.org/2000/svg">
<path d="M40.3293 56L56.3293 40L40.3293 24L34.7293 29.6L41.1293 36H24.3293V44H41.1293L34.7293 50.4L40.3293 56ZM40.3293 80C34.796 80 29.596 78.9493 24.7293 76.848C19.8627 74.7493 15.6293 71.9 12.0293 68.3C8.42935 64.7 5.58001 60.4667 3.48135 55.6C1.38001 50.7333 0.329346 45.5333 0.329346 40C0.329346 34.4667 1.38001 29.2667 3.48135 24.4C5.58001 19.5333 8.42935 15.3 12.0293 11.7C15.6293 8.1 19.8627 5.24933 24.7293 3.148C29.596 1.04933 34.796 0 40.3293 0C45.8627 0 51.0627 1.04933 55.9293 3.148C60.796 5.24933 65.0293 8.1 68.6293 11.7C72.2293 15.3 75.0787 19.5333 77.1773 24.4C79.2787 29.2667 80.3293 34.4667 80.3293 40C80.3293 45.5333 79.2787 50.7333 77.1773 55.6C75.0787 60.4667 72.2293 64.7 68.6293 68.3C65.0293 71.9 60.796 74.7493 55.9293 76.848C51.0627 78.9493 45.8627 80 40.3293 80ZM40.3293 72C49.2627 72 56.8293 68.9 63.0293 62.7C69.2293 56.5 72.3293 48.9333 72.3293 40C72.3293 31.0667 69.2293 23.5 63.0293 17.3C56.8293 11.1 49.2627 8 40.3293 8C31.396 8 23.8293 11.1 17.6293 17.3C11.4293 23.5 8.32935 31.0667 8.32935 40C8.32935 48.9333 11.4293 56.5 17.6293 62.7C23.8293 68.9 31.396 72 40.3293 72Z" fill="white"/>
</svg>
