<svg width="31" height="34" viewBox="0 0 31 34" fill="none" xmlns="http://www.w3.org/2000/svg">
<path d="M10.7048 1.52087C13.3715 -0.0624593 16.7048 -0.0624593 19.3715 1.52087C22.0382 3.10421 23.6048 6.02087 23.4882 9.10421V9.48754C25.5882 9.48754 27.8048 10.9542 28.5715 14.5209L29.8548 24.5042C30.8065 31.0209 27.0215 33.6709 21.9382 33.6709H8.1215C3.02317 33.6709 -0.878501 31.8375 0.171499 24.5042L1.4715 14.5209C1.6715 13.0375 2.38817 11.6542 3.50483 10.6375C4.3565 9.88921 5.45483 9.48754 6.58817 9.48754V9.10421C6.45483 6.02087 8.03983 3.10421 10.7048 1.52087ZM19.8215 14.8542C19.0065 14.8542 18.3382 15.5042 18.3382 16.3209C18.3382 17.1209 19.0065 17.7875 19.8215 17.7875C20.2048 17.7875 20.5882 17.6375 20.8548 17.3542C21.1382 17.0875 21.2882 16.7042 21.2882 16.3209C21.2882 15.5042 20.6215 14.8542 19.8215 14.8542ZM10.1548 14.8542C9.33817 14.8542 8.6715 15.5042 8.6715 16.3209C8.6715 17.1209 9.33817 17.7875 10.1548 17.7875C10.9715 17.7875 11.6215 17.1209 11.6215 16.3209C11.6215 15.5042 10.9715 14.8542 10.1548 14.8542ZM15.0048 3.23754C11.7548 3.23754 9.1215 5.87087 9.1215 9.10421V9.47254H20.9048V9.10421C20.9048 5.87087 18.2715 3.23754 15.0048 3.23754Z" fill="black"/>
</svg>
