<svg width="29" height="28" viewBox="0 0 29 28" fill="none" xmlns="http://www.w3.org/2000/svg">
<g clip-path="url(#clip0_202_188)">
<path d="M26.6866 4.7565C26.3573 4.36268 25.9451 4.04594 25.4791 3.82878C25.0132 3.61163 24.505 3.49937 23.9907 3.5H5.06404L5.01488 3.0905C4.91426 2.23932 4.50377 1.45452 3.86122 0.884891C3.21867 0.31526 2.38874 0.000398759 1.52877 0L1.26889 0C0.95842 0 0.660668 0.122916 0.441134 0.341709C0.2216 0.560501 0.0982666 0.857247 0.0982666 1.16667C0.0982666 1.47609 0.2216 1.77283 0.441134 1.99162C0.660668 2.21042 0.95842 2.33333 1.26889 2.33333H1.52877C1.81549 2.33337 2.09223 2.43828 2.30649 2.62817C2.52076 2.81805 2.65765 3.07971 2.69119 3.3635L4.30197 17.0135C4.46919 18.4331 5.15357 19.7421 6.22519 20.692C7.29681 21.6419 8.68109 22.1667 10.1153 22.1667H22.3401C22.6505 22.1667 22.9483 22.0438 23.1678 21.825C23.3874 21.6062 23.5107 21.3094 23.5107 21C23.5107 20.6906 23.3874 20.3938 23.1678 20.175C22.9483 19.9562 22.6505 19.8333 22.3401 19.8333H10.1153C9.39073 19.8313 8.68454 19.606 8.09354 19.1882C7.50253 18.7705 7.05564 18.1808 6.81412 17.5H20.7679C22.1402 17.5001 23.469 17.0196 24.5219 16.1425C25.5749 15.2654 26.2851 14.0475 26.5286 12.7015L27.4475 7.62183C27.5392 7.11784 27.5186 6.59991 27.3871 6.10474C27.2556 5.60958 27.0165 5.14929 26.6866 4.7565Z" fill="black"/>
<path d="M8.29266 28C9.58569 28 10.6339 26.9554 10.6339 25.6667C10.6339 24.378 9.58569 23.3334 8.29266 23.3334C6.99963 23.3334 5.95142 24.378 5.95142 25.6667C5.95142 26.9554 6.99963 28 8.29266 28Z" fill="black"/>
<path d="M19.9988 28C21.2919 28 22.3401 26.9554 22.3401 25.6667C22.3401 24.378 21.2919 23.3334 19.9988 23.3334C18.7058 23.3334 17.6576 24.378 17.6576 25.6667C17.6576 26.9554 18.7058 28 19.9988 28Z" fill="black"/>
</g>
<defs>
<clipPath id="clip0_202_188">
<rect width="28.0949" height="28" fill="white" transform="translate(0.0982666)"/>
</clipPath>
</defs>
</svg>
