<svg width="30" height="30" viewBox="0 0 30 30" fill="none" xmlns="http://www.w3.org/2000/svg">
<path d="M15.0342 30C10.8302 30 7.27323 28.545 4.36327 25.6351C1.45442 22.7264 0 19.17 0 14.9661C0 11.1241 1.25285 7.78987 3.75856 4.96349C6.26427 2.13823 9.46601 0.488951 13.3638 0.0156603C14.0598 -0.0678615 14.6027 0.182704 14.9925 0.767357C15.3823 1.35201 15.3683 1.9645 14.9507 2.60484C14.4774 3.32869 14.1222 4.09431 13.885 4.90169C13.6489 5.70907 13.5308 6.5582 13.5308 7.4491C13.5308 9.95476 14.4078 12.0846 16.1618 13.8385C17.9158 15.5925 20.0457 16.4695 22.5514 16.4695C23.4144 16.4695 24.2708 16.3442 25.1206 16.0936C25.9691 15.843 26.7275 15.495 27.3957 15.0496C27.9804 14.6598 28.579 14.6387 29.1915 14.9861C29.804 15.3347 30.0685 15.8848 29.985 16.6365C29.5952 20.4785 27.9598 23.6663 25.0788 26.1998C22.1967 28.7333 18.8485 30 15.0342 30ZM15.0342 26.6591C17.4843 26.6591 19.6837 25.9843 21.6326 24.6346C23.5815 23.2837 25.0014 21.5225 25.8923 19.351C25.3355 19.4902 24.7787 19.6015 24.2218 19.6851C23.665 19.7686 23.1082 19.8103 22.5514 19.8103C19.1269 19.8103 16.2103 18.6065 13.8014 16.1989C11.3937 13.7901 10.1899 10.8735 10.1899 7.4491C10.1899 6.89229 10.2316 6.33548 10.3152 5.77867C10.3987 5.22186 10.51 4.66504 10.6493 4.10823C8.47764 4.99913 6.71697 6.419 5.36722 8.36784C4.01637 10.3167 3.34094 12.5161 3.34094 14.9661C3.34094 18.1956 4.48243 20.9518 6.76541 23.2347C9.04839 25.5177 11.8047 26.6591 15.0342 26.6591Z" fill="black"/>
</svg>
