<svg width="40" height="40" viewBox="0 0 40 40" fill="none" xmlns="http://www.w3.org/2000/svg">
<path d="M20 8.33329C19.5277 8.33329 19.1322 8.17329 18.8133 7.85329C18.4933 7.5344 18.3333 7.13885 18.3333 6.66663V3.33329C18.3333 2.86107 18.4933 2.46496 18.8133 2.14496C19.1322 1.82607 19.5277 1.66663 20 1.66663C20.4722 1.66663 20.8683 1.82607 21.1883 2.14496C21.5072 2.46496 21.6666 2.86107 21.6666 3.33329V6.66663C21.6666 7.13885 21.5072 7.5344 21.1883 7.85329C20.8683 8.17329 20.4722 8.33329 20 8.33329ZM28.25 11.75C27.9444 11.4444 27.7916 11.0622 27.7916 10.6033C27.7916 10.1455 27.9444 9.74996 28.25 9.41663L30.5833 7.04163C30.9166 6.70829 31.3122 6.54163 31.77 6.54163C32.2288 6.54163 32.625 6.70829 32.9583 7.04163C33.2638 7.34718 33.4166 7.73607 33.4166 8.20829C33.4166 8.68052 33.2638 9.0694 32.9583 9.37496L30.5833 11.75C30.2777 12.0555 29.8888 12.2083 29.4166 12.2083C28.9444 12.2083 28.5555 12.0555 28.25 11.75ZM33.3333 21.6666C32.8611 21.6666 32.4655 21.5066 32.1466 21.1866C31.8266 20.8677 31.6666 20.4722 31.6666 20C31.6666 19.5277 31.8266 19.1316 32.1466 18.8116C32.4655 18.4927 32.8611 18.3333 33.3333 18.3333H36.6666C37.1389 18.3333 37.5344 18.4927 37.8533 18.8116C38.1733 19.1316 38.3333 19.5277 38.3333 20C38.3333 20.4722 38.1733 20.8677 37.8533 21.1866C37.5344 21.5066 37.1389 21.6666 36.6666 21.6666H33.3333ZM20 38.3333C19.5277 38.3333 19.1322 38.1733 18.8133 37.8533C18.4933 37.5344 18.3333 37.1389 18.3333 36.6666V33.3333C18.3333 32.8611 18.4933 32.4655 18.8133 32.1466C19.1322 31.8266 19.5277 31.6666 20 31.6666C20.4722 31.6666 20.8683 31.8266 21.1883 32.1466C21.5072 32.4655 21.6666 32.8611 21.6666 33.3333V36.6666C21.6666 37.1389 21.5072 37.5344 21.1883 37.8533C20.8683 38.1733 20.4722 38.3333 20 38.3333ZM9.41663 11.75L7.04163 9.41663C6.70829 9.08329 6.54163 8.68052 6.54163 8.20829C6.54163 7.73607 6.70829 7.34718 7.04163 7.04163C7.34718 6.73607 7.73607 6.58329 8.20829 6.58329C8.68052 6.58329 9.0694 6.73607 9.37496 7.04163L11.75 9.41663C12.0555 9.72218 12.2083 10.1111 12.2083 10.5833C12.2083 11.0555 12.0555 11.4444 11.75 11.75C11.4166 12.0555 11.0277 12.2083 10.5833 12.2083C10.1388 12.2083 9.74996 12.0555 9.41663 11.75ZM30.5833 32.9583L28.25 30.5833C27.9444 30.25 27.7916 29.8544 27.7916 29.3966C27.7916 28.9377 27.9444 28.5555 28.25 28.25C28.5555 27.9444 28.9377 27.7916 29.3966 27.7916C29.8544 27.7916 30.25 27.9444 30.5833 28.25L32.9583 30.5833C33.2916 30.8889 33.4511 31.2777 33.4366 31.75C33.4233 32.2222 33.2638 32.625 32.9583 32.9583C32.625 33.2916 32.2222 33.4583 31.75 33.4583C31.2777 33.4583 30.8889 33.2916 30.5833 32.9583ZM3.33329 21.6666C2.86107 21.6666 2.46551 21.5066 2.14663 21.1866C1.82663 20.8677 1.66663 20.4722 1.66663 20C1.66663 19.5277 1.82663 19.1316 2.14663 18.8116C2.46551 18.4927 2.86107 18.3333 3.33329 18.3333H6.66663C7.13885 18.3333 7.53496 18.4927 7.85496 18.8116C8.17385 19.1316 8.33329 19.5277 8.33329 20C8.33329 20.4722 8.17385 20.8677 7.85496 21.1866C7.53496 21.5066 7.13885 21.6666 6.66663 21.6666H3.33329ZM7.04163 32.9583C6.73607 32.6527 6.58329 32.2639 6.58329 31.7916C6.58329 31.3194 6.73607 30.9305 7.04163 30.625L9.41663 28.25C9.72218 27.9444 10.1044 27.7916 10.5633 27.7916C11.0211 27.7916 11.4166 27.9444 11.75 28.25C12.0833 28.5833 12.25 28.9794 12.25 29.4383C12.25 29.8961 12.0833 30.2916 11.75 30.625L9.41663 32.9583C9.08329 33.2916 8.68052 33.4583 8.20829 33.4583C7.73607 33.4583 7.34718 33.2916 7.04163 32.9583ZM20 30C17.2222 30 14.8611 29.0277 12.9166 27.0833C10.9722 25.1388 9.99996 22.7777 9.99996 20C9.99996 17.2222 10.9722 14.8611 12.9166 12.9166C14.8611 10.9722 17.2222 9.99996 20 9.99996C22.7777 9.99996 25.1388 10.9722 27.0833 12.9166C29.0277 14.8611 30 17.2222 30 20C30 22.7777 29.0277 25.1388 27.0833 27.0833C25.1388 29.0277 22.7777 30 20 30ZM20 26.6666C21.8333 26.6666 23.4027 26.0138 24.7083 24.7083C26.0138 23.4027 26.6666 21.8333 26.6666 20C26.6666 18.1666 26.0138 16.5972 24.7083 15.2916C23.4027 13.9861 21.8333 13.3333 20 13.3333C18.1666 13.3333 16.5972 13.9861 15.2916 15.2916C13.9861 16.5972 13.3333 18.1666 13.3333 20C13.3333 21.8333 13.9861 23.4027 15.2916 24.7083C16.5972 26.0138 18.1666 26.6666 20 26.6666ZM20 26.6666C18.1666 26.6666 16.5972 26.0138 15.2916 24.7083C13.9861 23.4027 13.3333 21.8333 13.3333 20C13.3333 18.1666 13.9861 16.5972 15.2916 15.2916C16.5972 13.9861 18.1666 13.3333 20 13.3333C21.8333 13.3333 23.4027 13.9861 24.7083 15.2916C26.0138 16.5972 26.6666 18.1666 26.6666 20C26.6666 21.8333 26.0138 23.4027 24.7083 24.7083C23.4027 26.0138 21.8333 26.6666 20 26.6666Z" fill="white"/>
</svg>
