<svg width="31" height="31" viewBox="0 0 31 31" fill="none" xmlns="http://www.w3.org/2000/svg">
<path d="M29.5167 27.15L23.85 21.5C25.6783 19.1708 26.6704 16.2944 26.6667 13.3333C26.6667 10.6963 25.8847 8.11839 24.4196 5.92574C22.9545 3.73308 20.8721 2.02411 18.4358 1.01495C15.9994 0.00577712 13.3185 -0.258267 10.7321 0.256202C8.14572 0.770672 5.76995 2.04055 3.90525 3.90525C2.04055 5.76995 0.770672 8.14572 0.256202 10.7321C-0.258267 13.3185 0.00577712 15.9994 1.01495 18.4358C2.02411 20.8721 3.73308 22.9545 5.92574 24.4196C8.11839 25.8847 10.6963 26.6667 13.3333 26.6667C16.2944 26.6704 19.1708 25.6783 21.5 23.85L27.15 29.5167C27.3049 29.6729 27.4893 29.7969 27.6924 29.8815C27.8955 29.9661 28.1133 30.0097 28.3333 30.0097C28.5534 30.0097 28.7712 29.9661 28.9743 29.8815C29.1774 29.7969 29.3617 29.6729 29.5167 29.5167C29.6729 29.3617 29.7969 29.1774 29.8815 28.9743C29.9661 28.7712 30.0097 28.5534 30.0097 28.3333C30.0097 28.1133 29.9661 27.8955 29.8815 27.6924C29.7969 27.4893 29.6729 27.3049 29.5167 27.15ZM3.33334 13.3333C3.33334 11.3555 3.91983 9.42213 5.01864 7.77764C6.11746 6.13315 7.67924 4.85142 9.50651 4.09454C11.3338 3.33767 13.3444 3.13963 15.2842 3.52549C17.2241 3.91134 19.0059 4.86375 20.4044 6.26227C21.8029 7.6608 22.7553 9.44263 23.1412 11.3824C23.527 13.3222 23.329 15.3329 22.5721 17.1602C21.8153 18.9874 20.5335 20.5492 18.889 21.648C17.2446 22.7468 15.3112 23.3333 13.3333 23.3333C10.6812 23.3333 8.13764 22.2798 6.26227 20.4044C4.38691 18.529 3.33334 15.9855 3.33334 13.3333Z" fill="black"/>
</svg>
